0
SECTION
2
HEADER
9
$INSUNITS
70
4
9
$ACADVER
1
AC1014
9
$HANDSEED
5
FFFF
0
ENDSEC
0
SECTION
2
TABLES
0
TABLE
2
VPORT
5
8
100
AcDbSymbolTable
0
ENDTAB
0
TABLE
2
LTYPE
5
5
100
AcDbSymbolTable
0
LTYPE
5
14
100
AcDbSymbolTableRecord
100
AcDbLinetypeTableRecord
2
BYBLOCK
70
0
0
LTYPE
5
15
100
AcDbSymbolTableRecord
100
AcDbLinetypeTableRecord
2
BYLAYER
70
0
0
ENDTAB
0
TABLE
2
LAYER
5
2
100
AcDbSymbolTable
70
2
0
LAYER
5
50
100
AcDbSymbolTableRecord
100
AcDbLayerTableRecord
2
0
70
0
6
CONTINUOUS
0
ENDTAB
0
TABLE
2
STYLE
5
3
100
AcDbSymbolTable
70
1
0
STYLE
5
11
100
AcDbSymbolTableRecord
100
AcDbTextStyleTableRecord
2
STANDARD
70
0
0
ENDTAB
0
TABLE
2
VIEW
5
6
100
AcDbSymbolTable
70
0
0
ENDTAB
0
TABLE
2
UCS
5
7
100
AcDbSymbolTable
70
0
0
ENDTAB
0
TABLE
2
APPID
5
9
100
AcDbSymbolTable
70
2
0
APPID
5
12
100
AcDbSymbolTableRecord
100
AcDbRegAppTableRecord
2
ACAD
70
0
0
ENDTAB
0
TABLE
2
DIMSTYLE
5
A
100
AcDbSymbolTable
70
1
0
ENDTAB
0
TABLE
2
BLOCK_RECORD
5
1
100
AcDbSymbolTable
70
1
0
BLOCK_RECORD
5
1F
100
AcDbSymbolTableRecord
100
AcDbBlockTableRecord
2
*MODEL_SPACE
0
BLOCK_RECORD
5
1B
100
AcDbSymbolTableRecord
100
AcDbBlockTableRecord
2
*PAPER_SPACE
0
ENDTAB
0
ENDSEC
0
SECTION
2
BLOCKS
0
BLOCK
5
20
100
AcDbEntity
100
AcDbBlockBegin
2
*MODEL_SPACE
0
ENDBLK
5
21
100
AcDbEntity
100
AcDbBlockEnd
0
BLOCK
5
1C
100
AcDbEntity
100
AcDbBlockBegin
2
*PAPER_SPACE
0
ENDBLK
5
1D
100
AcDbEntity
100
AcDbBlockEnd
0
ENDSEC
0
SECTION
2
ENTITIES
0
LWPOLYLINE
5
100
100
AcDbEntity
8
0
100
AcDbPolyline
90
8
70
1
43
0.0
10
4.8750000000000018
20
-79
42
-0.41421356237309503
10
5.3750000000000009
20
-78.5
10
18.375000000000004
20
-78.5
42
-0.4142135623730937
10
18.875
20
-79
10
18.875000000000007
20
-92.000000000000014
42
-0.41421356237309503
10
18.375000000000004
20
-92.500000000000014
10
5.375
20
-92.500000000000014
42
-0.41421356237309503
10
4.875
20
-92.000000000000014
0
LWPOLYLINE
5
101
100
AcDbEntity
8
0
100
AcDbPolyline
90
8
70
1
43
0.0
10
301
20
-59.5
10
288
20
-59.5
42
0.41421356237309503
10
287.5
20
-60
10
287.5
20
-73
42
0.41421356237309503
10
288
20
-73.5
10
301
20
-73.5
42
0.41421356237309503
10
301.5
20
-73
10
301.5
20
-60
42
0.41421356237309503
0
LWPOLYLINE
5
102
100
AcDbEntity
8
0
100
AcDbPolyline
90
8
70
1
43
0.0
10
42.625
20
-92.000000000000014
10
42.625
20
-79
42
0.41421356237309503
10
42.125
20
-78.5
10
29.125
20
-78.5
42
0.41421356237309503
10
28.625000000000004
20
-79
10
28.625000000000004
20
-92.000000000000014
42
0.41421356237309503
10
29.125
20
-92.500000000000014
10
42.125
20
-92.500000000000014
42
0.41421356237309503
0
LWPOLYLINE
5
103
100
AcDbEntity
8
0
100
AcDbPolyline
90
8
70
1
43
0.0
10
282
20
-73.5
10
269
20
-73.500000000000014
42
-0.41421356237309503
10
268.5
20
-73
10
268.5
20
-60
42
-0.41421356237309503
10
269
20
-59.5
10
282
20
-59.499999999999993
42
-0.41421356237309503
10
282.50000000000006
20
-60
10
282.50000000000006
20
-73
42
-0.41421356237309503
0
LWPOLYLINE
5
104
100
AcDbEntity
8
0
100
AcDbPolyline
90
8
70
1
43
0.0
10
242.875
20
-73.500000000000014
42
-0.41421356237309503
10
242.375
20
-73
10
242.375
20
-60
42
-0.41421356237309503
10
242.875
20
-59.5
10
255.87500000000003
20
-59.499999999999993
42
-0.41421356237309503
10
256.375
20
-60
10
256.375
20
-73
42
-0.41421356237309503
10
255.87500000000003
20
-73.5
0
LWPOLYLINE
5
105
100
AcDbEntity
8
0
100
AcDbPolyline
90
8
70
1
43
0.0
10
65.875
20
-78.5
10
52.875000000000007
20
-78.5
42
0.41421356237309503
10
52.375000000000007
20
-79
10
52.375000000000007
20
-92.000000000000014
42
0.41421356237309503
10
52.875000000000007
20
-92.5
10
65.875
20
-92.500000000000014
42
0.41421356237309503
10
66.375
20
-92.000000000000014
10
66.375
20
-79
42
0.41421356237309503
0
LWPOLYLINE
5
106
100
AcDbEntity
8
0
100
AcDbPolyline
90
8
70
1
43
0.0
10
225
20
-92.5
10
212.00000000000003
20
-92.500000000000014
42
-0.41421356237309503
10
211.50000000000003
20
-92.000000000000014
10
211.50000000000003
20
-79
42
-0.41421356237309503
10
212.00000000000003
20
-78.5
10
225
20
-78.5
42
-0.41421356237309503
10
225.5
20
-79
10
225.5
20
-92.000000000000014
42
-0.41421356237309503
0
LWPOLYLINE
5
107
100
AcDbEntity
8
0
100
AcDbPolyline
90
8
70
1
43
0.0
10
193
20
-92.500000000000014
42
-0.41421356237309503
10
192.5
20
-92.000000000000014
10
192.5
20
-79
42
-0.41421356237309503
10
193
20
-78.5
10
206
20
-78.5
42
-0.41421356237309503
10
206.50000000000003
20
-79
10
206.50000000000003
20
-92.000000000000014
42
-0.41421356237309503
10
206
20
-92.500000000000014
0
LWPOLYLINE
5
108
100
AcDbEntity
8
0
100
AcDbPolyline
90
8
70
1
43
0.0
10
140.75
20
-73.500000000000014
42
-0.41421356237309503
10
140.25
20
-73
10
140.25000000000003
20
-60
42
-0.41421356237309503
10
140.75
20
-59.5
10
153.75
20
-59.499999999999993
42
-0.41421356237309503
10
154.25
20
-60
10
154.25
20
-73
42
-0.41421356237309503
10
153.75
20
-73.5
0
LWPOLYLINE
5
109
100
AcDbEntity
8
0
100
AcDbPolyline
90
8
70
1
43
0.0
10
115.75000000000001
20
-59.5
10
102.75
20
-59.5
42
0.41421356237309503
10
102.25
20
-60
10
102.25
20
-73
42
0.41421356237309503
10
102.75
20
-73.5
10
115.75000000000001
20
-73.5
42
0.41421356237309503
10
116.25000000000001
20
-73
10
116.25000000000001
20
-60
42
0.41421356237309503
0
LWPOLYLINE
5
110
100
AcDbEntity
8
0
100
AcDbPolyline
90
8
70
1
43
0.0
10
135.25000000000003
20
-73
42
-0.41421356237309503
10
134.75
20
-73.5
10
121.75
20
-73.500000000000014
42
-0.41421356237309503
10
121.25
20
-73
10
121.25
20
-60
42
-0.41421356237309503
10
121.75
20
-59.5
10
134.75
20
-59.499999999999993
42
-0.41421356237309503
10
135.25000000000003
20
-60
0
LWPOLYLINE
5
111
100
AcDbEntity
8
0
100
AcDbPolyline
90
8
70
1
43
0.0
10
159.25
20
-60
42
-0.41421356237309503
10
159.75
20
-59.5
10
172.75000000000003
20
-59.499999999999993
42
-0.41421356237309503
10
173.25000000000003
20
-60
10
173.25000000000003
20
-73
42
-0.41421356237309503
10
172.75000000000003
20
-73.5
10
159.75
20
-73.500000000000014
42
-0.41421356237309503
10
159.25
20
-73
0
LWPOLYLINE
5
112
100
AcDbEntity
8
0
100
AcDbPolyline
90
8
70
1
43
0.0
10
191.75
20
-59.5
10
178.75
20
-59.5
42
0.41421356237309503
10
178.25
20
-60
10
178.25
20
-73
42
0.41421356237309503
10
178.75
20
-73.5
10
191.75
20
-73.5
42
0.41421356237309503
10
192.25
20
-73
10
192.25
20
-60
42
0.41421356237309503
0
LWPOLYLINE
5
113
100
AcDbEntity
8
0
100
AcDbPolyline
90
8
70
1
43
0.0
10
211.25000000000003
20
-73
42
-0.41421356237309503
10
210.75000000000003
20
-73.5
10
197.75000000000003
20
-73.500000000000014
42
-0.41421356237309503
10
197.25
20
-73
10
197.25
20
-60
42
-0.41421356237309503
10
197.75000000000003
20
-59.5
10
210.75000000000003
20
-59.499999999999993
42
-0.41421356237309503
10
211.25000000000003
20
-60
0
LWPOLYLINE
5
114
100
AcDbEntity
8
0
100
AcDbPolyline
90
8
70
1
43
0.0
10
216.25
20
-73
10
216.25
20
-60
42
-0.41421356237309503
10
216.75
20
-59.5
10
229.75
20
-59.499999999999993
42
-0.41421356237309503
10
230.25000000000003
20
-60
10
230.25000000000003
20
-73
42
-0.41421356237309503
10
229.75
20
-73.5
10
216.75
20
-73.500000000000014
42
-0.41421356237309503
0
LWPOLYLINE
5
115
100
AcDbEntity
8
0
100
AcDbPolyline
90
8
70
1
43
0.0
10
97.250000000000014
20
-73
42
-0.41421356237309503
10
96.75
20
-73.5
10
83.75
20
-73.500000000000014
42
-0.41421356237309503
10
83.25
20
-73
10
83.25
20
-60
42
-0.41421356237309503
10
83.75
20
-59.5
10
96.75
20
-59.499999999999993
42
-0.41421356237309503
10
97.250000000000014
20
-60
0
LWPOLYLINE
5
116
100
AcDbEntity
8
0
100
AcDbPolyline
90
8
70
1
43
0.0
10
149.5
20
-16
10
149.5
20
-3.0000000000000004
42
0.41421356237309503
10
149
20
-2.5
10
136
20
-2.5000000000000004
42
0.41421356237309503
10
135.5
20
-3.0000000000000004
10
135.5
20
-16
42
0.41421356237309503
10
136
20
-16.5
10
149
20
-16.5
42
0.41421356237309503
0
LWPOLYLINE
5
117
100
AcDbEntity
8
0
100
AcDbPolyline
90
8
70
1
43
0.0
10
16
20
-2.5
42
-0.41421356237309503
10
16.5
20
-3.0000000000000004
10
16.5
20
-16
42
-0.41421356237309503
10
16
20
-16.5
10
3.0000000000000004
20
-16.5
42
-0.41421356237309503
10
2.5
20
-16
10
2.5000000000000004
20
-3.0000000000000004
42
-0.41421356237309503
10
3.0000000000000004
20
-2.5000000000000004
0
LWPOLYLINE
5
118
100
AcDbEntity
8
0
100
AcDbPolyline
90
8
70
1
43
0.0
10
111.00000000000001
20
-16.5
10
98
20
-16.500000000000007
42
-0.41421356237309503
10
97.5
20
-16
10
97.5
20
-3.0000000000000004
42
-0.41421356237309503
10
98
20
-2.5
10
111.00000000000001
20
-2.4999999999999933
42
-0.41421356237309503
10
111.50000000000003
20
-3.0000000000000004
10
111.50000000000003
20
-16
42
-0.41421356237309503
0
LWPOLYLINE
5
119
100
AcDbEntity
8
0
100
AcDbPolyline
90
8
70
1
43
0.0
10
225.5
20
-16
10
225.5
20
-3.0000000000000004
42
0.41421356237309503
10
225
20
-2.5000000000000004
10
212.00000000000003
20
-2.5000000000000004
42
0.41421356237309503
10
211.50000000000003
20
-3.0000000000000004
10
211.50000000000003
20
-16
42
0.41421356237309503
10
212.00000000000003
20
-16.5
10
225
20
-16.5
42
0.41421356237309503
0
LWPOLYLINE
5
120
100
AcDbEntity
8
0
100
AcDbPolyline
90
8
70
1
43
0.0
10
244.00000000000003
20
-16.5
10
231
20
-16.500000000000007
42
-0.41421356237309503
10
230.5
20
-16
10
230.5
20
-3.0000000000000004
42
-0.41421356237309503
10
231
20
-2.5000000000000004
10
244.00000000000003
20
-2.4999999999999933
42
-0.41421356237309503
10
244.50000000000003
20
-3.0000000000000004
10
244.50000000000003
20
-16
42
-0.41421356237309503
0
LWPOLYLINE
5
121
100
AcDbEntity
8
0
100
AcDbPolyline
90
8
70
1
43
0.0
10
187
20
-2.4999999999999933
42
-0.41421356237309503
10
187.5
20
-3.0000000000000004
10
187.5
20
-16
42
-0.41421356237309503
10
187
20
-16.5
10
174.00000000000003
20
-16.500000000000007
42
-0.41421356237309503
10
173.5
20
-16
10
173.5
20
-3.0000000000000004
42
-0.41421356237309503
10
174.00000000000003
20
-2.5000000000000004
0
LWPOLYLINE
5
122
100
AcDbEntity
8
0
100
AcDbPolyline
90
8
70
1
43
0.0
10
154.5
20
-3.0000000000000004
42
-0.41421356237309503
10
155
20
-2.5000000000000004
10
168
20
-2.4999999999999933
42
-0.41421356237309503
10
168.5
20
-3.0000000000000004
10
168.5
20
-16
42
-0.41421356237309503
10
168
20
-16.5
10
155
20
-16.500000000000007
42
-0.41421356237309503
10
154.5
20
-16
0
LWPOLYLINE
5
123
100
AcDbEntity
8
0
100
AcDbPolyline
90
8
70
1
43
0.0
10
54.5
20
-16
42
-0.41421356237309503
10
54
20
-16.5
10
41.000000000000007
20
-16.5
42
-0.41421356237309503
10
40.500000000000007
20
-16
10
40.500000000000007
20
-3.0000000000000004
42
-0.41421356237309503
10
41.000000000000007
20
-2.5
10
54
20
-2.5000000000000022
42
-0.41421356237309503
10
54.5
20
-3.0000000000000004
0
LWPOLYLINE
5
124
100
AcDbEntity
8
0
100
AcDbPolyline
90
8
70
1
43
0.0
10
206.50000000000003
20
-16
10
206.50000000000003
20
-3.0000000000000004
42
0.41421356237309503
10
206
20
-2.5000000000000004
10
193
20
-2.5000000000000004
42
0.41421356237309503
10
192.5
20
-3.0000000000000004
10
192.5
20
-16
42
0.41421356237309503
10
193
20
-16.5
10
206
20
-16.5
42
0.41421356237309503
0
LWPOLYLINE
5
125
100
AcDbEntity
8
0
100
AcDbPolyline
90
8
70
1
43
0.0
10
4.875
20
-73
10
4.8750000000000018
20
-60
42
-0.41421356237309503
10
5.3750000000000009
20
-59.5
10
18.375000000000004
20
-59.5
42
-0.4142135623730937
10
18.875
20
-60
10
18.875
20
-73
42
-0.4142135623730937
10
18.375000000000004
20
-73.5
10
5.375
20
-73.5
42
-0.41421356237309503
0
LWPOLYLINE
5
126
100
AcDbEntity
8
0
100
AcDbPolyline
90
8
70
1
43
0.0
10
59.250000000000007
20
-73
10
59.25
20
-60
42
0.41421356237309503
10
58.75
20
-59.5
10
45.75
20
-59.5
42
0.41421356237309503
10
45.25
20
-60
10
45.25
20
-73
42
0.41421356237309503
10
45.75
20
-73.5
10
58.75
20
-73.5
42
0.41421356237309503
0
LWPOLYLINE
5
127
100
AcDbEntity
8
0
100
AcDbPolyline
90
8
70
1
43
0.0
10
287.5
20
-3.0000000000000004
42
-0.41421356237309503
10
288
20
-2.5000000000000004
10
301
20
-2.4999999999999933
42
-0.41421356237309503
10
301.5
20
-3.0000000000000004
10
301.5
20
-16
42
-0.41421356237309503
10
301
20
-16.5
10
288
20
-16.500000000000007
42
-0.41421356237309503
10
287.5
20
-16
0
LWPOLYLINE
5
128
100
AcDbEntity
8
0
100
AcDbPolyline
90
8
70
1
43
0.0
10
20.75
20
-21.5
10
7.75
20
-21.500000000000004
42
0.41421356237309503
10
7.2500000000000009
20
-22
10
7.25
20
-35
42
0.41421356237309503
10
7.7499999999999991
20
-35.5
10
20.75
20
-35.5
42
0.41421356237309503
10
21.25
20
-35
10
21.25
20
-22
42
0.41421356237309503
0
LWPOLYLINE
5
129
100
AcDbEntity
8
0
100
AcDbPolyline
90
8
70
1
43
0.0
10
44.5
20
-35.5
10
31.500000000000004
20
-35.5
42
-0.41421356237309503
10
31
20
-35
10
31.000000000000007
20
-22
42
-0.41421356237309503
10
31.500000000000004
20
-21.500000000000004
10
44.5
20
-21.500000000000004
42
-0.41421356237309503
10
45
20
-22
10
45
20
-35
42
-0.41421356237309503
0
LWPOLYLINE
5
130
100
AcDbEntity
8
0
100
AcDbPolyline
90
8
70
1
43
0.0
10
63.500000000000007
20
-21.5
10
50.500000000000007
20
-21.500000000000004
42
0.41421356237309503
10
50
20
-22
10
50.000000000000007
20
-35
42
0.41421356237309503
10
50.500000000000007
20
-35.5
10
63.500000000000007
20
-35.5
42
0.41421356237309503
10
64
20
-35
10
64
20
-22
42
0.41421356237309503
0
LWPOLYLINE
5
131
100
AcDbEntity
8
0
100
AcDbPolyline
90
8
70
1
43
0.0
10
250
20
-92.500000000000014
42
-0.41421356237309503
10
249.5
20
-92.000000000000014
10
249.5
20
-79
42
-0.41421356237309503
10
250
20
-78.5
10
263
20
-78.5
42
-0.41421356237309503
10
263.5
20
-79
10
263.5
20
-92.000000000000014
42
-0.41421356237309503
10
263
20
-92.5
0
LWPOLYLINE
5
132
100
AcDbEntity
8
0
100
AcDbPolyline
90
8
70
1
43
0.0
10
268.5
20
-92.000000000000014
10
268.5
20
-79
42
-0.41421356237309503
10
269
20
-78.5
10
282
20
-78.5
42
-0.41421356237309503
10
282.5
20
-79
10
282.50000000000006
20
-92.000000000000014
42
-0.41421356237309503
10
282
20
-92.5
10
269
20
-92.500000000000014
42
-0.41421356237309503
0
LWPOLYLINE
5
133
100
AcDbEntity
8
0
100
AcDbPolyline
90
8
70
1
43
0.0
10
301
20
-78.5
42
-0.41421356237309503
10
301.5
20
-79
10
301.5
20
-92.000000000000014
42
-0.41421356237309503
10
301
20
-92.500000000000014
10
288
20
-92.500000000000014
42
-0.41421356237309503
10
287.5
20
-92.000000000000014
10
287.5
20
-79
42
-0.41421356237309503
10
288
20
-78.5
0
LWPOLYLINE
5
134
100
AcDbEntity
8
0
100
AcDbPolyline
90
8
70
1
43
0.0
10
73.5
20
-16
10
73.5
20
-3.0000000000000004
42
0.41421356237309503
10
73
20
-2.5000000000000004
10
60
20
-2.5000000000000004
42
0.41421356237309503
10
59.5
20
-3.0000000000000004
10
59.5
20
-16
42
0.41421356237309503
10
60
20
-16.5
10
73
20
-16.5
42
0.41421356237309503
0
LWPOLYLINE
5
135
100
AcDbEntity
8
0
100
AcDbPolyline
90
8
70
1
43
0.0
10
78.5
20
-3.0000000000000004
42
-0.41421356237309503
10
79
20
-2.5000000000000004
10
92.000000000000014
20
-2.4999999999999933
42
-0.41421356237309503
10
92.5
20
-3.0000000000000004
10
92.500000000000014
20
-16
42
-0.41421356237309503
10
92.000000000000014
20
-16.5
10
79
20
-16.5
42
-0.41421356237309503
10
78.5
20
-16
0
LWPOLYLINE
5
136
100
AcDbEntity
8
0
100
AcDbPolyline
90
8
70
1
43
0.0
10
130
20
-2.5
10
117.00000000000001
20
-2.5000000000000004
42
0.41421356237309503
10
116.5
20
-3.0000000000000004
10
116.5
20
-16
42
0.41421356237309503
10
117.00000000000001
20
-16.5
10
130
20
-16.5
42
0.41421356237309503
10
130.5
20
-16
10
130.5
20
-3.0000000000000004
42
0.41421356237309503
0
LWPOLYLINE
5
137
100
AcDbEntity
8
0
100
AcDbPolyline
90
8
70
1
43
0.0
10
22
20
-16.5
42
-0.41421356237309503
10
21.500000000000004
20
-16
10
21.500000000000004
20
-3.0000000000000004
42
-0.41421356237309503
10
22
20
-2.5
10
35
20
-2.5000000000000022
42
-0.41421356237309503
10
35.5
20
-3.0000000000000004
10
35.5
20
-16
42
-0.41421356237309503
10
35
20
-16.5
0
LWPOLYLINE
5
138
100
AcDbEntity
8
0
100
AcDbPolyline
90
8
70
1
43
0.0
10
231
20
-92.500000000000014
42
-0.41421356237309503
10
230.5
20
-92.000000000000014
10
230.5
20
-79
42
-0.41421356237309503
10
231
20
-78.5
10
244.00000000000003
20
-78.5
42
-0.41421356237309503
10
244.50000000000003
20
-79
10
244.50000000000003
20
-92.000000000000014
42
-0.41421356237309503
10
244.00000000000003
20
-92.5
0
LWPOLYLINE
5
139
100
AcDbEntity
8
0
100
AcDbPolyline
90
8
70
1
43
0.0
10
220.25000000000003
20
-40.5
42
-0.41421356237309503
10
220.75000000000003
20
-41.000000000000007
10
220.75000000000003
20
-54
42
-0.41421356237309503
10
220.25000000000003
20
-54.5
10
207.25
20
-54.500000000000014
42
-0.41421356237309503
10
206.75
20
-54
10
206.75
20
-41.000000000000007
42
-0.41421356237309503
10
207.25
20
-40.5
0
LWPOLYLINE
5
140
100
AcDbEntity
8
0
100
AcDbPolyline
90
8
70
1
43
0.0
10
87.25
20
-40.5
10
74.25
20
-40.500000000000007
42
0.41421356237309503
10
73.750000000000014
20
-41.000000000000007
10
73.750000000000014
20
-54
42
0.41421356237309503
10
74.25
20
-54.5
10
87.25
20
-54.5
42
0.41421356237309503
10
87.75
20
-54
10
87.75
20
-41.000000000000007
42
0.41421356237309503
0
LWPOLYLINE
5
141
100
AcDbEntity
8
0
100
AcDbPolyline
90
8
70
1
43
0.0
10
182.75000000000003
20
-54
10
182.75000000000003
20
-41.000000000000007
42
0.41421356237309503
10
182.25
20
-40.500000000000007
10
169.25
20
-40.500000000000007
42
0.41421356237309503
10
168.75
20
-41.000000000000007
10
168.75
20
-54
42
0.41421356237309503
10
169.25
20
-54.5
10
182.25
20
-54.5
42
0.41421356237309503
0
LWPOLYLINE
5
142
100
AcDbEntity
8
0
100
AcDbPolyline
90
8
70
1
43
0.0
10
201.75
20
-54
42
-0.41421356237309503
10
201.25
20
-54.5
10
188.25
20
-54.500000000000014
42
-0.41421356237309503
10
187.75000000000003
20
-54
10
187.75
20
-41.000000000000007
42
-0.41421356237309503
10
188.25
20
-40.5
10
201.25
20
-40.5
42
-0.41421356237309503
10
201.75
20
-41.000000000000007
0
LWPOLYLINE
5
143
100
AcDbEntity
8
0
100
AcDbPolyline
90
8
70
1
43
0.0
10
77.75
20
-73.5
10
64.75
20
-73.5
42
-0.41421356237309503
10
64.25
20
-73
10
64.25
20
-60
42
-0.41421356237309503
10
64.75
20
-59.5
10
77.75
20
-59.5
42
-0.41421356237309503
10
78.25
20
-60
10
78.25
20
-73
42
-0.41421356237309503
0
LWPOLYLINE
5
144
100
AcDbEntity
8
0
100
AcDbPolyline
90
8
70
1
43
0.0
10
239.25
20
-40.5
10
226.25
20
-40.500000000000007
42
0.41421356237309503
10
225.75
20
-41.000000000000007
10
225.75
20
-54
42
0.41421356237309503
10
226.25
20
-54.5
10
239.25
20
-54.5
42
0.41421356237309503
10
239.75
20
-54
10
239.75
20
-41.000000000000007
42
0.41421356237309503
0
LWPOLYLINE
5
145
100
AcDbEntity
8
0
100
AcDbPolyline
90
8
70
1
43
0.0
10
26.750000000000004
20
-73.5
42
-0.41421356237309503
10
26.250000000000004
20
-73
10
26.250000000000004
20
-60
42
-0.41421356237309503
10
26.750000000000004
20
-59.5
10
39.75
20
-59.499999999999993
42
-0.41421356237309503
10
40.25
20
-60
10
40.25
20
-73
42
-0.41421356237309503
10
39.75
20
-73.5
0
LWPOLYLINE
5
146
100
AcDbEntity
8
0
100
AcDbPolyline
90
8
70
1
43
0.0
10
245.25000000000003
20
-54.500000000000014
42
-0.41421356237309503
10
244.75
20
-54
10
244.75
20
-41.000000000000007
42
-0.41421356237309503
10
245.25000000000003
20
-40.500000000000007
10
258.25
20
-40.5
42
-0.41421356237309503
10
258.75000000000006
20
-41.000000000000007
10
258.75000000000006
20
-54
42
-0.41421356237309503
10
258.25
20
-54.5
0
LWPOLYLINE
5
147
100
AcDbEntity
8
0
100
AcDbPolyline
90
8
70
1
43
0.0
10
301
20
-40.5
10
288
20
-40.500000000000007
42
0.41421356237309503
10
287.5
20
-41.000000000000007
10
287.5
20
-54
42
0.41421356237309503
10
288
20
-54.5
10
301
20
-54.5
42
0.41421356237309503
10
301.5
20
-54
10
301.5
20
-41.000000000000007
42
0.41421356237309503
0
LWPOLYLINE
5
148
100
AcDbEntity
8
0
100
AcDbPolyline
90
8
70
1
43
0.0
10
69
20
-35
10
69
20
-22
42
-0.41421356237309503
10
69.5
20
-21.5
10
82.5
20
-21.499999999999993
42
-0.41421356237309503
10
83
20
-22
10
83
20
-35
42
-0.41421356237309503
10
82.5
20
-35.5
10
69.5
20
-35.5
42
-0.41421356237309503
0
LWPOLYLINE
5
149
100
AcDbEntity
8
0
100
AcDbPolyline
90
8
70
1
43
0.0
10
139.5
20
-21.499999999999993
42
-0.41421356237309503
10
140.00000000000003
20
-22
10
140
20
-35
42
-0.41421356237309503
10
139.5
20
-35.5
10
126.5
20
-35.500000000000007
42
-0.41421356237309503
10
126.00000000000001
20
-35
10
126.00000000000001
20
-22
42
-0.41421356237309503
10
126.5
20
-21.500000000000004
0
LWPOLYLINE
5
150
100
AcDbEntity
8
0
100
AcDbPolyline
90
8
70
1
43
0.0
10
101.5
20
-35.5
10
88.5
20
-35.500000000000007
42
-0.41421356237309503
10
87.999999999999986
20
-35
10
88
20
-22
42
-0.41421356237309503
10
88.5
20
-21.5
10
101.5
20
-21.499999999999993
42
-0.41421356237309503
10
102.00000000000001
20
-22
10
102
20
-35
42
-0.41421356237309503
0
LWPOLYLINE
5
151
100
AcDbEntity
8
0
100
AcDbPolyline
90
8
70
1
43
0.0
10
120.5
20
-35.5
10
107.5
20
-35.500000000000007
42
-0.41421356237309503
10
107
20
-35
10
107
20
-22
42
-0.41421356237309503
10
107.5
20
-21.5
10
120.5
20
-21.499999999999993
42
-0.41421356237309503
10
121.00000000000001
20
-22
10
121.00000000000001
20
-35
42
-0.41421356237309503
0
LWPOLYLINE
5
152
100
AcDbEntity
8
0
100
AcDbPolyline
90
8
70
1
43
0.0
10
145
20
-35
10
145
20
-22
42
-0.41421356237309503
10
145.5
20
-21.5
10
158.5
20
-21.499999999999993
42
-0.41421356237309503
10
159.00000000000003
20
-22
10
159.00000000000003
20
-35
42
-0.41421356237309503
10
158.5
20
-35.5
10
145.5
20
-35.500000000000007
42
-0.41421356237309503
0
LWPOLYLINE
5
153
100
AcDbEntity
8
0
100
AcDbPolyline
90
8
70
1
43
0.0
10
234.50000000000003
20
-21.499999999999993
42
-0.41421356237309503
10
235.00000000000003
20
-22
10
235.00000000000003
20
-35
42
-0.41421356237309503
10
234.50000000000003
20
-35.5
10
221.50000000000003
20
-35.500000000000007
42
-0.41421356237309503
10
221
20
-35
10
221
20
-22
42
-0.41421356237309503
10
221.50000000000003
20
-21.500000000000004
0
LWPOLYLINE
5
154
100
AcDbEntity
8
0
100
AcDbPolyline
90
8
70
1
43
0.0
10
164
20
-22
42
-0.41421356237309503
10
164.5
20
-21.500000000000004
10
177.5
20
-21.499999999999993
42
-0.41421356237309503
10
178
20
-22
10
178
20
-35
42
-0.41421356237309503
10
177.5
20
-35.5
10
164.5
20
-35.500000000000007
42
-0.41421356237309503
10
164
20
-35
0
LWPOLYLINE
5
155
100
AcDbEntity
8
0
100
AcDbPolyline
90
8
70
1
43
0.0
10
253.5
20
-21.499999999999993
42
-0.41421356237309503
10
254.00000000000003
20
-22
10
254.00000000000003
20
-35
42
-0.41421356237309503
10
253.5
20
-35.5
10
240.5
20
-35.500000000000007
42
-0.41421356237309503
10
240
20
-35
10
240
20
-22
42
-0.41421356237309503
10
240.5
20
-21.500000000000004
0
LWPOLYLINE
5
156
100
AcDbEntity
8
0
100
AcDbPolyline
90
8
70
1
43
0.0
10
196.50000000000003
20
-21.499999999999993
42
-0.41421356237309503
10
197.00000000000003
20
-22
10
197.00000000000003
20
-35
42
-0.41421356237309503
10
196.50000000000003
20
-35.5
10
183.5
20
-35.500000000000007
42
-0.41421356237309503
10
183
20
-35
10
183
20
-22
42
-0.41421356237309503
10
183.5
20
-21.5
0
LWPOLYLINE
5
157
100
AcDbEntity
8
0
100
AcDbPolyline
90
8
70
1
43
0.0
10
215.5
20
-21.5
10
202.5
20
-21.500000000000004
42
0.41421356237309503
10
202
20
-22
10
202
20
-35
42
0.41421356237309503
10
202.5
20
-35.5
10
215.5
20
-35.5
42
0.41421356237309503
10
216
20
-35
10
216
20
-22
42
0.41421356237309503
0
LWPOLYLINE
5
158
100
AcDbEntity
8
0
100
AcDbPolyline
90
8
70
1
43
0.0
10
9.625
20
-54
10
9.6250000000000018
20
-41.000000000000007
42
-0.41421356237309503
10
10.125
20
-40.500000000000007
10
23.125
20
-40.500000000000007
42
-0.41421356237309503
10
23.625
20
-41.000000000000007
10
23.625
20
-54
42
-0.41421356237309503
10
23.125
20
-54.5
10
10.125
20
-54.5
42
-0.41421356237309503
0
LWPOLYLINE
5
159
100
AcDbEntity
8
0
100
AcDbPolyline
90
8
70
1
43
0.0
10
49.250000000000007
20
-54.5
10
36.25
20
-54.5
42
-0.41421356237309503
10
35.75
20
-54
10
35.75
20
-41.000000000000007
42
-0.41421356237309503
10
36.25
20
-40.500000000000007
10
49.250000000000007
20
-40.500000000000007
42
-0.41421356237309503
10
49.750000000000007
20
-41.000000000000007
10
49.750000000000007
20
-54
42
-0.41421356237309503
0
LWPOLYLINE
5
160
100
AcDbEntity
8
0
100
AcDbPolyline
90
8
70
1
43
0.0
10
301.5
20
-35
10
301.5
20
-22
42
0.41421356237309503
10
301
20
-21.500000000000004
10
288
20
-21.500000000000004
42
0.41421356237309503
10
287.5
20
-22
10
287.5
20
-35
42
0.41421356237309503
10
288
20
-35.5
10
301
20
-35.5
42
0.41421356237309503
0
LWPOLYLINE
5
161
100
AcDbEntity
8
0
100
AcDbPolyline
90
8
70
1
43
0.0
10
68.25
20
-54.5
10
55.25
20
-54.5
42
-0.41421356237309503
10
54.750000000000007
20
-54
10
54.750000000000007
20
-41.000000000000007
42
-0.41421356237309503
10
55.25
20
-40.5
10
68.25
20
-40.500000000000007
42
-0.41421356237309503
10
68.75
20
-41.000000000000007
10
68.75
20
-54
42
-0.41421356237309503
0
LWPOLYLINE
5
162
100
AcDbEntity
8
0
100
AcDbPolyline
90
8
70
1
43
0.0
10
144.75
20
-54
42
-0.41421356237309503
10
144.25
20
-54.5
10
131.25
20
-54.500000000000014
42
-0.41421356237309503
10
130.75
20
-54
10
130.75
20
-41.000000000000007
42
-0.41421356237309503
10
131.25
20
-40.500000000000007
10
144.25
20
-40.5
42
-0.41421356237309503
10
144.75
20
-41.000000000000007
0
LWPOLYLINE
5
163
100
AcDbEntity
8
0
100
AcDbPolyline
90
8
70
1
43
0.0
10
106.75
20
-54
10
106.75
20
-41.000000000000007
42
0.41421356237309503
10
106.25
20
-40.5
10
93.250000000000014
20
-40.500000000000007
42
0.41421356237309503
10
92.75
20
-41.000000000000007
10
92.75
20
-54
42
0.41421356237309503
10
93.250000000000014
20
-54.5
10
106.25
20
-54.5
42
0.41421356237309503
0
LWPOLYLINE
5
164
100
AcDbEntity
8
0
100
AcDbPolyline
90
8
70
1
43
0.0
10
163.25
20
-54.5
10
150.25
20
-54.500000000000014
42
-0.41421356237309503
10
149.75
20
-54
10
149.75
20
-41.000000000000007
42
-0.41421356237309503
10
150.25
20
-40.500000000000007
10
163.25
20
-40.5
42
-0.41421356237309503
10
163.75
20
-41.000000000000007
10
163.75
20
-54
42
-0.41421356237309503
0
LWPOLYLINE
5
165
100
AcDbEntity
8
0
100
AcDbPolyline
90
8
70
1
43
0.0
10
125.25
20
-54.5
10
112.25000000000001
20
-54.500000000000014
42
-0.41421356237309503
10
111.75
20
-54
10
111.75
20
-41.000000000000007
42
-0.41421356237309503
10
112.25000000000001
20
-40.500000000000007
10
125.25
20
-40.5
42
-0.41421356237309503
10
125.75000000000001
20
-41.000000000000007
10
125.75
20
-54
42
-0.41421356237309503
0
LWPOLYLINE
5
166
100
AcDbEntity
8
0
100
AcDbPolyline
90
60
70
1
43
0.0
10
259
20
-4.6231999999999998
10
259
20
-3
42
-0.41421356237314383
10
259.5
20
-2.5
10
272.5
20
-2.5000000000000155
42
-0.41421356237312335
10
273
20
-3
10
273
20
-4.6231999999999998
10
274.61060000000003
20
-4.6231999999999998
10
274.61060000000009
20
-4.3104000000000005
42
-0.41421356237314383
10
275.11060000000003
20
-3.8104
10
280.76540000000006
20
-3.8103999999999805
42
-0.41421356237310253
10
281.26540000000011
20
-4.3104000000000005
10
281.2654
20
-7.2140000000000004
10
281.62900000000002
20
-7.2140000000000164
42
-0.41421356237312362
10
282.12900000000002
20
-7.7140000000000004
10
282.12900000000002
20
-10.008000000000001
10
281.7654
20
-10.007999999999981
42
0.41421356237310153
10
281.2654
20
-10.507999999999999
10
281.26540000000011
20
-15.603999999999999
42
-0.41421356237310153
10
280.76540000000006
20
-16.104000000000003
10
279.96200000000005
20
-16.103999999999989
42
0.41421356237310025
10
279.46200000000005
20
-16.604000000000003
10
279.46200000000005
20
-16.772400000000001
42
-0.41421356237314316
10
278.96200000000005
20
-17.272400000000001
10
276.91400000000004
20
-17.272400000000015
42
-0.41421356237310025
10
276.41400000000004
20
-16.772400000000001
10
276.41400000000004
20
-16.604000000000003
42
0.41421356237314577
10
275.91400000000004
20
-16.103999999999996
10
274.61060000000003
20
-16.104000000000003
10
274.61060000000003
20
-15.816600000000001
42
0.41421356237314577
10
274.11060000000003
20
-15.316599999999994
10
273
20
-15.316600000000001
10
273
20
-16
42
-0.41421356237309892
10
272.5
20
-16.500000000000004
10
259.5
20
-16.500000000000018
42
-0.41421356237310153
10
259
20
-16
10
259
20
-15.316600000000001
10
257.88940000000008
20
-15.316599999999996
42
0.41421356237307294
10
257.38940000000002
20
-15.816600000000001
10
257.38940000000002
20
-16.104000000000003
10
256.08600000000007
20
-16.103999999999999
42
0.41421356237307294
10
255.58600000000001
20
-16.604000000000003
10
255.58600000000007
20
-16.772400000000001
42
-0.41421356237312235
10
255.08600000000001
20
-17.272400000000001
10
253.03800000000001
20
-17.272400000000008
42
-0.41421356237307422
10
252.53800000000007
20
-16.772400000000001
10
252.53800000000007
20
-16.604000000000003
42
0.41421356237307161
10
252.03800000000001
20
-16.103999999999996
10
251.2346
20
-16.103999999999985
42
-0.41421356237312362
10
250.7346
20
-15.603999999999999
10
250.73460000000006
20
-10.507999999999999
42
0.41421356237312235
10
250.2346
20
-10.007999999999992
10
249.87100000000004
20
-10.008000000000001
10
249.87100000000009
20
-7.7140000000000004
42
-0.41421356237308332
10
250.37100000000004
20
-7.2140000000000004
10
250.7346
20
-7.2140000000000004
10
250.73459999999997
20
-4.3104000000000005
42
-0.41421356237312074
10
251.2346
20
-3.8104
10
256.88940000000002
20
-3.8104000000000164
42
-0.41421356237312301
10
257.38940000000002
20
-4.3104000000000005
10
257.38940000000002
20
-4.6231999999999998
0
LWPOLYLINE
5
167
100
AcDbEntity
8
0
100
AcDbPolyline
90
60
70
1
43
0.0
10
278.0018
20
-30.999999999999993
10
279.625
20
-31.000000000000057
42
-0.41421356237313667
10
280.125
20
-31.499999999999957
10
280.125
20
-44.499999999999972
42
-0.41421356237309503
10
279.625
20
-44.999999999999943
10
278.0018
20
-44.999999999999943
10
278.0018
20
-46.610600000000005
10
278.31460000000004
20
-46.610600000000005
42
-0.41421356237309503
10
278.81459999999998
20
-47.110599999999977
10
278.8146000000001
20
-52.765399999999971
42
-0.41421356237309503
10
278.31460000000004
20
-53.265400000000014
10
275.41100000000006
20
-53.265399999999872
10
275.41100000000006
20
-53.628999999999891
42
-0.41421356237313667
10
274.91100000000006
20
-54.128999999999934
10
272.61700000000002
20
-54.128999999999934
10
272.61700000000008
20
-53.765399999999914
42
0.41421356237309503
10
272.11700000000002
20
-53.265399999999872
10
267.02100000000007
20
-53.265399999999943
42
-0.41421356237309503
10
266.52100000000007
20
-52.765399999999971
10
266.52100000000013
20
-51.961999999999975
42
0.41421356237309503
10
266.02100000000013
20
-51.461999999999932
10
265.85260000000011
20
-51.462000000000003
42
-0.4142135623731783
10
265.35260000000005
20
-50.961999999999961
10
265.35260000000011
20
-48.913999999999987
42
-0.41421356237309503
10
265.85260000000011
20
-48.414000000000016
10
266.02100000000013
20
-48.414000000000016
42
0.41421356237313667
10
266.52100000000007
20
-47.913999999999973
10
266.52100000000007
20
-46.610600000000005
10
266.80840000000006
20
-46.610599999999934
42
0.4142135623731783
10
267.30840000000006
20
-46.110599999999963
10
267.30840000000006
20
-44.999999999999943
10
266.62500000000006
20
-44.999999999999943
42
-0.41421356237309503
10
266.12500000000006
20
-44.499999999999972
10
266.12500000000006
20
-31.499999999999957
42
-0.41421356237309503
10
266.62500000000006
20
-30.999999999999993
10
267.30840000000006
20
-30.999999999999993
10
267.30840000000012
20
-29.889400000000045
42
0.41421356237309503
10
266.80840000000006
20
-29.389400000000002
10
266.52100000000007
20
-29.389400000000002
10
266.52100000000007
20
-28.086000000000038
42
0.4142135623730534
10
266.02100000000013
20
-27.585999999999995
10
265.85260000000011
20
-27.585999999999995
42
-0.41421356237309503
10
265.35260000000011
20
-27.086000000000023
10
265.35260000000011
20
-25.038000000000039
42
-0.41421356237309503
10
265.85260000000011
20
-24.538000000000068
10
266.02100000000013
20
-24.538000000000075
42
0.4142135623730534
10
266.52100000000007
20
-24.038000000000032
10
266.52100000000007
20
-23.234600000000036
42
-0.41421356237313667
10
267.02100000000007
20
-22.734599999999993
10
272.11700000000002
20
-22.734600000000068
42
0.41421356237309503
10
272.61700000000008
20
-22.234600000000025
10
272.61700000000002
20
-21.871000000000077
10
274.91100000000006
20
-21.871000000000077
42
-0.41421356237309503
10
275.41100000000006
20
-22.371000000000048
10
275.41100000000006
20
-22.734599999999997
10
278.31460000000004
20
-22.734599999999993
42
-0.41421356237313667
10
278.81459999999998
20
-23.234600000000036
10
278.81459999999998
20
-28.889400000000034
42
-0.41421356237309503
10
278.31460000000004
20
-29.389400000000002
10
278.0018
20
-29.389400000000002
0
LWPOLYLINE
5
168
100
AcDbEntity
8
0
100
AcDbPolyline
90
64
70
1
43
0.0
10
124.12500000000001
20
-78.500000000000057
42
0.41421356237311063
10
123.62499999999999
20
-79.000000000000014
10
123.62499999999996
20
-83.200000000000017
10
84.452400000000011
20
-83.200000000000003
42
-0.41421356237307422
10
83.952399999999997
20
-82.700000000000017
10
83.952399999999997
20
-79.396000000000015
42
0.41421356237310025
10
83.452400000000011
20
-78.896000000000015
10
82.649000000000001
20
-78.896000000000029
42
-0.41421356237310542
10
82.148999999999972
20
-78.396000000000015
10
82.148999999999972
20
-78.22760000000001
42
0.4142135623730534
10
81.648999999999972
20
-77.72760000000001
10
79.600999999999985
20
-77.72760000000001
42
0.41421356237311585
10
79.100999999999971
20
-78.22760000000001
10
79.100999999999985
20
-78.396000000000015
42
-0.41421356237310542
10
78.600999999999971
20
-78.896000000000043
10
77.797599999999974
20
-78.896000000000015
42
0.41421356237307944
10
77.297599999999974
20
-79.396000000000015
10
77.297599999999974
20
-84.492000000000047
42
-0.414213562373069
10
76.79759999999996
20
-84.992000000000033
10
76.433999999999997
20
-84.992000000000033
10
76.433999999999983
20
-87.286000000000016
42
0.4142135623730846
10
76.933999999999997
20
-87.786000000000001
10
77.297599999999974
20
-87.786000000000001
10
77.29759999999996
20
-90.689600000000013
42
0.41421356237307944
10
77.797599999999974
20
-91.189600000000027
10
83.452400000000011
20
-91.189600000000027
42
0.4142135623730846
10
83.952399999999997
20
-90.689600000000027
10
83.952400000000011
20
-88.299999999999997
42
-0.4142135623730534
10
84.452400000000011
20
-87.800000000000026
10
123.62499999999996
20
-87.800000000000026
10
123.62499999999996
20
-92.000000000000028
42
0.41421356237306384
10
124.125
20
-92.500000000000057
10
137.12499999999997
20
-92.500000000000014
42
0.41421356237312623
10
137.62499999999997
20
-92.000000000000028
10
137.62499999999997
20
-87.800000000000026
10
176.79760000000002
20
-87.800000000000068
42
-0.41421356237307422
10
177.29759999999999
20
-88.299999999999997
10
177.29759999999996
20
-90.689600000000027
42
0.41421356237309503
10
177.79759999999996
20
-91.189600000000027
10
183.45239999999995
20
-91.189599999999999
42
0.4142135623730534
10
183.95240000000001
20
-90.689600000000027
10
183.95240000000001
20
-87.786000000000001
10
184.31600000000003
20
-87.786000000000001
42
0.41421356237310542
10
184.816
20
-87.286000000000016
10
184.816
20
-84.992000000000033
10
184.45239999999998
20
-84.992000000000033
42
-0.41421356237311585
10
183.95240000000001
20
-84.492000000000033
10
183.95240000000004
20
-79.396000000000015
42
0.41421356237313145
10
183.45239999999995
20
-78.896000000000015
10
182.64900000000006
20
-78.896000000000072
42
-0.41421356237310542
10
182.149
20
-78.396000000000015
10
182.14900000000006
20
-78.22760000000001
42
0.41421356237312101
10
181.64899999999994
20
-77.72760000000001
10
179.60099999999997
20
-77.72760000000001
42
0.41421356237315227
10
179.10099999999994
20
-78.22760000000001
10
179.10100000000003
20
-78.396000000000015
42
-0.41421356237307422
10
178.60099999999994
20
-78.896000000000043
10
177.79759999999996
20
-78.896000000000043
42
0.41421356237308982
10
177.29759999999999
20
-79.396000000000015
10
177.29760000000005
20
-82.700000000000017
42
-0.4142135623730846
10
176.79760000000002
20
-83.200000000000017
10
137.62499999999997
20
-83.200000000000017
10
137.62499999999997
20
-79.000000000000014
42
0.41421356237308982
10
137.12499999999997
20
-78.500000000000014
0
LWPOLYLINE
5
169
100
AcDbEntity
8
0
100
AcDbPolyline
90
8
70
1
43
0.0
10
302.99999998509884
20
-2.0000000149011576
10
302.99999998509884
20
-92.999999985098839
42
-0.41421356237305862
10
301.9999999850989
20
-93.999999985098839
10
2.0000000149011612
20
-93.999999985098839
42
-0.41421356237309553
10
1.0000000149011612
20
-92.999999985098839
10
1.000000014901161
20
-2.0000000149011576
42
-0.41421356237309431
10
2.0000000149011754
20
-1.0000000149011612
10
301.99999998509884
20
-1.0000000149011639
42
-0.41421356237306822
0
LWPOLYLINE
5
170
100
AcDbEntity
8
0
100
AcDbPolyline
90
4
70
1
43
0.0
10
38.749999999999986
20
-14.824999999999999
10
37.249999999999979
20
-14.824999999999999
10
37.249999999999979
20
-18.83484476671633
10
38.749999999999986
20
-18.83484476671633
0
LWPOLYLINE
5
171
100
AcDbEntity
8
0
100
AcDbPolyline
90
4
70
1
43
0.0
10
57.799999999999955
20
-18.83484476671633
10
57.799999999999955
20
-14.824999999999999
10
56.299999999999955
20
-14.824999999999999
10
56.299999999999955
20
-18.83484476671633
0
LWPOLYLINE
5
172
100
AcDbEntity
8
0
100
AcDbPolyline
90
4
70
1
43
0.0
10
76.849999999999966
20
-18.83484476671633
10
76.849999999999966
20
-14.824999999999999
10
75.349999999999966
20
-14.824999999999999
10
75.349999999999966
20
-18.83484476671633
0
CIRCLE
5
173
100
AcDbEntity
8
0
100
AcDbCircle
10
19
20
-7.5
30
0
40
1.100000000000001
210
0
220
0
230
1
0
CIRCLE
5
174
100
AcDbEntity
8
0
100
AcDbCircle
10
95
20
-7.5
30
0
40
1.100000000000001
210
0
220
0
230
1
0
CIRCLE
5
175
100
AcDbEntity
8
0
100
AcDbCircle
10
190
20
-7.5
30
0
40
1.100000000000001
210
0
220
0
230
1
0
CIRCLE
5
176
100
AcDbEntity
8
0
100
AcDbCircle
10
285
20
-7.5
30
0
40
1.100000000000001
210
0
220
0
230
1
0
CIRCLE
5
177
100
AcDbEntity
8
0
100
AcDbCircle
10
285
20
-83.500000000000014
30
0
40
1.100000000000001
210
0
220
0
230
1
0
CIRCLE
5
178
100
AcDbEntity
8
0
100
AcDbCircle
10
23.750000000000004
20
-83.500000000000014
30
0
40
1.100000000000001
210
0
220
0
230
1
0
ENDSEC
0
SECTION
2
OBJECTS
0
DICTIONARY
5
C
100
AcDbDictionary
3
ACAD_GROUP
350
D
3
ACAD_MLINESTYLE
350
17
0
DICTIONARY
5
D
100
AcDbDictionary
0
DICTIONARY
5
1A
330
C
100
AcDbDictionary
0
DICTIONARY
5
17
100
AcDbDictionary
0
ENDSEC
0
EOF
